<svg width="30" height="30" viewBox="0 0 30 30" fill="none" xmlns="http://www.w3.org/2000/svg">
<g clip-path="url(#clip0_108_182)">
<path d="M16.0153 0.0307007C23.627 0.0307007 29.8547 6.25841 29.8547 13.8701V16.0323C29.8547 23.644 23.6269 29.8717 16.0153 29.8717H13.853C6.24138 29.8717 0.0136719 23.644 0.0136719 16.0323V13.8701C0.0136719 6.25841 6.24138 0.0307007 13.853 0.0307007H16.0153ZM15.2062 7.53095L15.0137 7.5307C13.4103 7.5307 11.807 7.5837 11.807 7.5837C9.46513 7.5837 7.56667 9.48215 7.56667 11.824C7.56667 11.824 7.51799 13.2007 7.51394 14.6785L7.51367 14.8717C7.51367 16.5263 7.56667 18.2374 7.56667 18.2374C7.56667 20.5792 9.46513 22.4777 11.807 22.4777C11.807 22.4777 13.306 22.5307 14.8547 22.5307C16.5092 22.5307 18.2734 22.4777 18.2734 22.4777C20.6152 22.4777 22.4607 20.6323 22.4607 18.2904C22.4607 18.2904 22.5137 16.5985 22.5137 14.9777L22.5127 14.5973C22.5055 13.1431 22.4606 11.771 22.4606 11.771C22.4606 9.42912 20.6152 7.5837 18.2734 7.5837C18.2734 7.5837 16.7469 7.53485 15.2062 7.53095ZM15.0137 8.88066C16.3284 8.88066 18.0142 8.92414 18.0142 8.92414C19.9345 8.92414 21.1202 10.1098 21.1202 12.0301C21.1202 12.0301 21.1637 13.6871 21.1637 14.9872C21.1637 16.3163 21.1202 18.0312 21.1202 18.0312C21.1202 19.9515 19.9345 21.1372 18.0142 21.1372C18.0142 21.1372 16.5234 21.1737 15.2299 21.1798L14.8833 21.1806C13.6134 21.1806 12.0661 21.1372 12.0661 21.1372C10.1458 21.1372 8.90715 19.8984 8.90715 17.9782C8.90715 17.9782 8.86367 16.257 8.86367 14.9003C8.86367 13.6304 8.90715 12.0301 8.90715 12.0301C8.90715 10.1098 10.1459 8.92414 12.0661 8.92414C12.0661 8.92414 13.6989 8.88066 15.0137 8.88066ZM15.0136 11.1887C12.8918 11.1887 11.1717 12.9088 11.1717 15.0306C11.1717 17.1525 12.8918 18.8726 15.0136 18.8726C17.1355 18.8726 18.8556 17.1525 18.8556 15.0306C18.8556 12.9088 17.1355 11.1887 15.0136 11.1887ZM15.0136 12.5306C16.3944 12.5306 17.5136 13.6499 17.5136 15.0306C17.5136 16.4114 16.3944 17.5307 15.0136 17.5307C13.6329 17.5307 12.5136 16.4114 12.5136 15.0306C12.5136 13.6499 13.6329 12.5306 15.0136 12.5306ZM19.0394 10.1226C18.5267 10.1226 18.1111 10.5403 18.1111 11.0555C18.1111 11.5707 18.5267 11.9884 19.0394 11.9884C19.5521 11.9884 19.9677 11.5707 19.9677 11.0555C19.9677 10.5402 19.5521 10.1226 19.0394 10.1226Z" fill="#434343"/>
</g>
<defs>
<clipPath id="clip0_108_182">
<rect width="30" height="30" fill="white"/>
</clipPath>
</defs>
</svg>
