<svg width="131" height="48" viewBox="0 0 131 48" fill="none" xmlns="http://www.w3.org/2000/svg">
<path d="M15.8547 1.09147V35.6713H12.6542V1.09147H15.8547ZM28.5089 0.893024V2.3814H0V0.893024H28.5089ZM28.5089 2.23256V6.25116L28.0165 6.20155V5.35814C28.0165 4.53127 27.7211 3.83669 27.1302 3.27442C26.5722 2.71215 25.8993 2.41447 25.1115 2.3814V2.23256H28.5089ZM28.5089 0V1.43876L22.5018 0.893024C23.224 0.893024 23.979 0.843411 24.7668 0.744185C25.5874 0.644962 26.3424 0.5292 27.0317 0.3969C27.7211 0.2646 28.2135 0.1323 28.5089 0ZM12.8019 32.0496V35.6713H8.86287V35.1752C8.86287 35.1752 8.96134 35.1752 9.15829 35.1752C9.38807 35.1752 9.50296 35.1752 9.50296 35.1752C10.3564 35.1752 11.0786 34.8775 11.6694 34.2822C12.2931 33.6537 12.6214 32.9096 12.6542 32.0496H12.8019ZM15.707 32.0496H15.8547C15.8875 32.9096 16.1993 33.6537 16.7902 34.2822C17.4139 34.8775 18.1525 35.1752 19.0059 35.1752C19.0059 35.1752 19.1044 35.1752 19.3014 35.1752C19.5311 35.1752 19.646 35.1752 19.646 35.1752V35.6713H15.707V32.0496ZM3.39743 2.23256V2.3814C2.5768 2.41447 1.88746 2.71215 1.32943 3.27442C0.771397 3.83669 0.492381 4.53127 0.492381 5.35814V6.20155L0 6.25116V2.23256H3.39743ZM0 0C0.328254 0.1323 0.820636 0.2646 1.47714 0.3969C2.16648 0.5292 2.92146 0.644962 3.7421 0.744185C4.56273 0.843411 5.31772 0.893024 6.00705 0.893024L0 1.43876V0Z" fill="black"/>
<path d="M63.1614 21.1845L62.5705 28.9736C61.7171 30.3959 60.6338 31.6693 59.3208 32.7938C58.0406 33.8853 56.5142 34.7618 54.7417 35.4233C53.0019 36.0517 50.9996 36.3659 48.7346 36.3659C45.3208 36.3328 42.2844 35.5721 39.6255 34.0837C36.9667 32.5953 34.8823 30.5116 33.3723 27.8326C31.8952 25.1204 31.1566 21.9287 31.1566 18.2574C31.1566 14.6522 31.8952 11.5101 33.3723 8.83101C34.8494 6.11886 36.9174 4.0186 39.5763 2.53023C42.268 1.00879 45.4192 0.248062 49.03 0.248062C51.4591 0.248062 53.642 0.578812 55.5787 1.24031C57.5482 1.86874 59.2552 2.66253 60.6995 3.62171L61.6842 10.6171H61.2411C60.5189 7.70646 59.0418 5.50698 56.8097 4.01861C54.5775 2.49716 51.9843 1.73644 49.03 1.73644C46.1414 1.73644 43.6302 2.43101 41.4966 3.82016C39.3958 5.17623 37.7545 7.09457 36.5728 9.57519C35.4239 12.0227 34.8494 14.9003 34.8494 18.2078C34.8494 21.5152 35.4239 24.4093 36.5728 26.8899C37.7545 29.3705 39.3794 31.3054 41.4474 32.6946C43.5482 34.0837 45.9773 34.8114 48.7346 34.8775C51.0652 34.8775 53.2153 34.4475 55.1848 33.5876C57.1872 32.6946 58.8612 31.2558 60.2071 29.2713C61.5529 27.2537 62.4064 24.5581 62.7675 21.1845H63.1614Z" fill="black"/>
<path d="M85.7009 36.3659L86.1933 35.076C86.7841 35.076 87.5555 35.1917 88.5075 35.4233C89.4922 35.6548 90.6247 35.969 91.9049 36.3659C93.1851 36.7959 94.5966 37.3085 96.1394 37.9039C97.715 38.4992 99.3891 39.1607 101.162 39.8884C102.934 40.616 104.805 41.4098 106.775 42.2698C108.613 43.0636 110.599 43.6424 112.733 44.0062C114.899 44.4031 117.082 44.5354 119.281 44.4031C121.481 44.2708 123.565 43.8243 125.535 43.0636C127.537 42.3359 129.293 41.261 130.803 39.8388L131 40.0868C130.77 40.7152 130.212 41.476 129.326 42.369C128.472 43.2951 127.324 44.1716 125.879 44.9984C124.435 45.8584 122.728 46.5199 120.758 46.9829C118.822 47.4791 116.639 47.6279 114.21 47.4295C111.814 47.231 109.204 46.5199 106.381 45.2961C104.871 44.6346 103.263 43.8574 101.556 42.9643C99.8487 42.0713 98.0925 41.1783 96.2871 40.2853C94.4817 39.3922 92.6763 38.5819 90.8709 37.8543C89.0983 37.1597 87.375 36.6636 85.7009 36.3659ZM86.2425 0.248062C89.722 0.248062 92.7748 1.00879 95.4008 2.53023C98.0597 4.0186 100.128 6.11886 101.605 8.83101C103.115 11.5432 103.87 14.7018 103.87 18.307C103.87 21.9121 103.115 25.0708 101.605 27.7829C100.128 30.4951 98.0597 32.6119 95.4008 34.1333C92.742 35.6217 89.6892 36.3659 86.2425 36.3659C82.763 36.3659 79.6938 35.6217 77.035 34.1333C74.3761 32.6119 72.2917 30.4951 70.7817 27.7829C69.3046 25.0708 68.566 21.9121 68.566 18.307C68.566 14.7018 69.3046 11.5432 70.7817 8.83101C72.2917 6.11886 74.3761 4.0186 77.035 2.53023C79.6938 1.00879 82.763 0.248062 86.2425 0.248062ZM86.2425 34.8775C89.0327 34.8775 91.4618 34.1829 93.5298 32.7938C95.6306 31.4047 97.2555 29.4698 98.4044 26.9891C99.5861 24.5085 100.177 21.6145 100.177 18.307C100.177 14.9995 99.5861 12.1054 98.4044 9.62481C97.2555 7.14419 95.6306 5.2093 93.5298 3.82016C91.4618 2.43101 89.0327 1.73644 86.2425 1.73644C83.4524 1.73644 81.0069 2.43101 78.906 3.82016C76.8052 5.2093 75.1639 7.14419 73.9822 9.62481C72.8333 12.1054 72.2589 14.9995 72.2589 18.307C72.2589 21.6145 72.8498 24.5085 74.0315 26.9891C75.2132 29.4698 76.8545 31.4047 78.9553 32.7938C81.0561 34.1829 83.4852 34.8775 86.2425 34.8775Z" fill="black"/>
<path d="M29.1613 39.1442H30.7861C31.3114 39.1442 31.7627 39.2393 32.1402 39.4295C32.5177 39.6196 32.809 39.8966 33.0142 40.2605C33.2193 40.616 33.3219 41.0419 33.3219 41.538C33.3219 41.9183 33.2481 42.2615 33.1003 42.5674C32.9526 42.8651 32.7557 43.1173 32.5095 43.324C32.2633 43.5308 31.9843 43.6879 31.6724 43.7953C31.3606 43.8946 31.0364 43.9318 30.7 43.907C30.3717 43.8822 30.0517 43.7871 29.7398 43.6217V43.4977C29.7398 43.4977 29.8096 43.5101 29.9491 43.5349C30.0886 43.5514 30.265 43.5556 30.4784 43.5473C30.7 43.5307 30.9298 43.4853 31.1677 43.4109C31.4139 43.3282 31.6396 43.1876 31.8448 42.9891C32.0581 42.7907 32.2182 42.5137 32.3248 42.1581C32.3495 42.0672 32.37 41.9556 32.3864 41.8233C32.4028 41.6827 32.4069 41.5463 32.3987 41.414C32.3905 40.8434 32.2428 40.3845 31.9556 40.0372C31.6683 39.6899 31.2621 39.5163 30.7369 39.5163H29.2844C29.2844 39.5163 29.2721 39.4873 29.2475 39.4295C29.231 39.3633 29.2105 39.3013 29.1859 39.2434C29.1695 39.1773 29.1613 39.1442 29.1613 39.1442ZM29.3213 39.1442V47.8264H28.5212V39.1442H29.3213ZM28.5581 46.9209V47.8264H27.5734V47.7023C27.5734 47.7023 27.598 47.7023 27.6472 47.7023C27.7047 47.7023 27.7334 47.7023 27.7334 47.7023C27.9467 47.7023 28.1273 47.6279 28.275 47.4791C28.4309 47.322 28.513 47.1359 28.5212 46.9209H28.5581ZM28.5581 40.0496H28.5212C28.5212 39.8346 28.4432 39.6527 28.2873 39.5039C28.1314 39.3468 27.9467 39.2682 27.7334 39.2682C27.7334 39.2682 27.7088 39.2682 27.6595 39.2682C27.6103 39.2682 27.5857 39.2682 27.5857 39.2682L27.5734 39.1442H28.5581V40.0496ZM29.2844 46.9209H29.3213C29.3295 47.1359 29.4075 47.322 29.5552 47.4791C29.7111 47.6279 29.8958 47.7023 30.1091 47.7023C30.1091 47.7023 30.1337 47.7023 30.183 47.7023C30.2404 47.7023 30.2691 47.7023 30.2691 47.7023V47.8264H29.2844V46.9209Z" fill="black"/>
<path d="M38.5467 40.2108C39.1212 40.2108 39.6587 40.3059 40.1593 40.4961C40.6681 40.678 41.1112 40.9426 41.4887 41.2899C41.8744 41.6372 42.1739 42.0506 42.3873 42.5302C42.6007 43.0016 42.7074 43.5266 42.7074 44.1054C42.7074 44.6842 42.6007 45.2134 42.3873 45.693C42.1739 46.1643 41.8744 46.5736 41.4887 46.9209C41.1112 47.2682 40.6681 47.5369 40.1593 47.7271C39.6587 47.909 39.1212 48 38.5467 48C37.9723 48 37.4348 47.909 36.9342 47.7271C36.4336 47.5369 35.9904 47.2682 35.6048 46.9209C35.2273 46.5736 34.9318 46.1643 34.7185 45.693C34.5051 45.2134 34.3984 44.6842 34.3984 44.1054C34.3984 43.5266 34.5051 43.0016 34.7185 42.5302C34.9318 42.0506 35.2273 41.6372 35.6048 41.2899C35.9904 40.9426 36.4336 40.678 36.9342 40.4961C37.4348 40.3059 37.9723 40.2108 38.5467 40.2108ZM38.5467 47.6279C39.154 47.6279 39.7038 47.4791 40.1962 47.1814C40.6886 46.8837 41.0784 46.4703 41.3656 45.9411C41.6528 45.4119 41.7964 44.8 41.7964 44.1054C41.7964 43.4026 41.6528 42.7907 41.3656 42.2698C41.0784 41.7406 40.6886 41.3271 40.1962 41.0295C39.7038 40.7318 39.154 40.5829 38.5467 40.5829C37.9477 40.5829 37.4019 40.7318 36.9096 41.0295C36.4172 41.3271 36.0274 41.7406 35.7402 42.2698C35.4529 42.7907 35.3093 43.4026 35.3093 44.1054C35.3093 44.8 35.4529 45.4119 35.7402 45.9411C36.0274 46.4703 36.4172 46.8837 36.9096 47.1814C37.4019 47.4791 37.9477 47.6279 38.5467 47.6279Z" fill="black"/>
<path d="M45.4864 40.3845V47.8264H44.6986V40.3845H45.4864ZM48.7977 47.4419L48.7731 47.8264H45.4618V47.4419H48.7977ZM49.487 46.0527L48.81 47.8264H46.9389L47.3575 47.4419C47.7678 47.4419 48.096 47.384 48.3422 47.2682C48.5966 47.1442 48.8018 46.9788 48.9577 46.7721C49.1136 46.5571 49.249 46.3173 49.3639 46.0527H49.487ZM44.7232 47.0326L44.8833 47.8264H43.8123V47.7023C43.8123 47.7023 43.841 47.7023 43.8985 47.7023C43.9559 47.7023 43.9847 47.7023 43.9847 47.7023C44.1898 47.7023 44.3581 47.6362 44.4894 47.5039C44.6207 47.3716 44.6904 47.2145 44.6986 47.0326H44.7232ZM45.4495 41.1783V40.3845H46.3604V40.5085C46.3604 40.5085 46.3358 40.5085 46.2865 40.5085C46.2373 40.5085 46.2127 40.5085 46.2127 40.5085C46.0157 40.5085 45.8434 40.5747 45.6957 40.707C45.5562 40.831 45.4864 40.9881 45.4864 41.1783H45.4495ZM44.7232 41.1783H44.6986C44.6904 40.9881 44.6166 40.831 44.477 40.707C44.3375 40.5747 44.1652 40.5085 43.96 40.5085C43.96 40.5085 43.9354 40.5085 43.8862 40.5085C43.8369 40.5085 43.8123 40.5085 43.8123 40.5085V40.3845H44.7232V41.1783Z" fill="black"/>
<path d="M51.8962 40.3845V47.8264H51.1207V40.3845H51.8962ZM51.1577 47.0326V47.8264H50.1113V47.7023C50.1113 47.7023 50.1401 47.7023 50.1975 47.7023C50.255 47.7023 50.2837 47.7023 50.2837 47.7023C50.5135 47.7023 50.7063 47.6362 50.8622 47.5039C51.0264 47.3716 51.1125 47.2145 51.1207 47.0326H51.1577ZM51.8593 47.0326H51.8962C51.9044 47.2145 51.9865 47.3716 52.1424 47.5039C52.3065 47.6362 52.5035 47.7023 52.7333 47.7023C52.7333 47.7023 52.7579 47.7023 52.8071 47.7023C52.8646 47.7023 52.8933 47.7023 52.8933 47.7023L52.9056 47.8264H51.8593V47.0326ZM51.8593 41.1783V40.3845H52.9056L52.8933 40.5085C52.8933 40.5085 52.8646 40.5085 52.8071 40.5085C52.7579 40.5085 52.7333 40.5085 52.7333 40.5085C52.5035 40.5085 52.3065 40.5747 52.1424 40.707C51.9865 40.831 51.9044 40.9881 51.8962 41.1783H51.8593ZM51.1577 41.1783H51.1207C51.1125 40.9881 51.0264 40.831 50.8622 40.707C50.7063 40.5747 50.5135 40.5085 50.2837 40.5085C50.2755 40.5085 50.2426 40.5085 50.1852 40.5085C50.136 40.5085 50.1113 40.5085 50.1113 40.5085V40.3845H51.1577V41.1783Z" fill="black"/>
<path d="M57.5332 40.4217V47.8264H56.7331V40.4217H57.5332ZM60.5121 40.3721V40.7442H53.7542V40.3721H60.5121ZM60.5121 40.7194V41.5752H60.3767V41.3767C60.3767 41.2031 60.3193 41.0584 60.2044 40.9426C60.0977 40.8186 59.95 40.7525 59.7613 40.7442V40.7194H60.5121ZM60.5121 40.1736V40.4961L59.1335 40.3721C59.2976 40.3721 59.4699 40.3638 59.6505 40.3473C59.8392 40.3225 60.0115 40.2935 60.1675 40.2605C60.3234 40.2274 60.4383 40.1985 60.5121 40.1736ZM56.7577 47.0326V47.8264H55.8591V47.7023C55.8673 47.7023 55.892 47.7023 55.933 47.7023C55.9822 47.7023 56.0068 47.7023 56.0068 47.7023C56.2038 47.7023 56.372 47.6362 56.5115 47.5039C56.651 47.3716 56.7249 47.2145 56.7331 47.0326H56.7577ZM57.4963 47.0326H57.5332C57.5414 47.2145 57.6153 47.3716 57.7548 47.5039C57.8943 47.6362 58.0625 47.7023 58.2595 47.7023C58.2595 47.7023 58.28 47.7023 58.321 47.7023C58.3703 47.7023 58.3949 47.7023 58.3949 47.7023V47.8264H57.4963V47.0326ZM54.5051 40.7194V40.7442C54.3163 40.7525 54.1645 40.8186 54.0496 40.9426C53.9429 41.0584 53.8896 41.2031 53.8896 41.3767V41.5752H53.7542V40.7194H54.5051ZM53.7542 40.1736C53.8281 40.1985 53.9388 40.2274 54.0866 40.2605C54.2425 40.2935 54.4148 40.3225 54.6036 40.3473C54.7923 40.3638 54.9687 40.3721 55.1329 40.3721L53.7542 40.4961V40.1736Z" fill="black"/>
<path d="M63.1479 40.3845V47.8264H62.3724V40.3845H63.1479ZM62.4093 47.0326V47.8264H61.363V47.7023C61.363 47.7023 61.3918 47.7023 61.4492 47.7023C61.5066 47.7023 61.5354 47.7023 61.5354 47.7023C61.7651 47.7023 61.958 47.6362 62.1139 47.5039C62.278 47.3716 62.3642 47.2145 62.3724 47.0326H62.4093ZM63.111 47.0326H63.1479C63.1561 47.2145 63.2382 47.3716 63.3941 47.5039C63.5582 47.6362 63.7552 47.7023 63.985 47.7023C63.985 47.7023 64.0096 47.7023 64.0588 47.7023C64.1163 47.7023 64.145 47.7023 64.145 47.7023L64.1573 47.8264H63.111V47.0326ZM63.111 41.1783V40.3845H64.1573L64.145 40.5085C64.145 40.5085 64.1163 40.5085 64.0588 40.5085C64.0096 40.5085 63.985 40.5085 63.985 40.5085C63.7552 40.5085 63.5582 40.5747 63.3941 40.707C63.2382 40.831 63.1561 40.9881 63.1479 41.1783H63.111ZM62.4093 41.1783H62.3724C62.3642 40.9881 62.278 40.831 62.1139 40.707C61.958 40.5747 61.7651 40.5085 61.5354 40.5085C61.5272 40.5085 61.4943 40.5085 61.4369 40.5085C61.3876 40.5085 61.363 40.5085 61.363 40.5085V40.3845H62.4093V41.1783Z" fill="black"/>
<path d="M72.8391 44.7008L72.7037 46.4C72.4903 46.7307 72.2113 47.016 71.8666 47.2558C71.522 47.4956 71.1322 47.6817 70.6972 47.814C70.2623 47.938 69.8027 48 69.3186 48C68.4897 47.9917 67.7675 47.8305 67.1521 47.5163C66.5448 47.2021 66.077 46.7556 65.7488 46.1767C65.4205 45.5979 65.2564 44.9075 65.2564 44.1054C65.2564 43.2951 65.4205 42.6005 65.7488 42.0217C66.077 41.4429 66.5448 40.9964 67.1521 40.6822C67.7675 40.368 68.4897 40.2108 69.3186 40.2108C69.8273 40.2108 70.3402 40.277 70.8572 40.4093C71.3742 40.5416 71.8215 40.7276 72.199 40.9674L72.4698 42.7163H72.359C72.1785 41.9556 71.8133 41.4098 71.2635 41.0791C70.7218 40.7483 70.0694 40.5829 69.3062 40.5829C68.6579 40.5829 68.0958 40.7276 67.6198 41.0171C67.1521 41.2982 66.7869 41.7034 66.5243 42.2326C66.2699 42.7535 66.1427 43.3778 66.1427 44.1054C66.1427 44.8165 66.2699 45.4367 66.5243 45.9659C66.7869 46.4868 67.1562 46.892 67.6321 47.1814C68.1081 47.4625 68.6702 47.6072 69.3186 47.6155C69.934 47.6155 70.488 47.5163 70.9803 47.3178C71.4809 47.1111 71.8871 46.7928 72.199 46.3628C72.5108 45.9328 72.6873 45.3788 72.7283 44.7008H72.8391Z" fill="black"/>
<path d="M76.2005 40.2108C76.4303 40.2108 76.6314 40.2191 76.8037 40.2357C76.976 40.2522 77.1238 40.2729 77.2469 40.2977C77.3782 40.3142 77.4889 40.339 77.5792 40.3721C77.6777 40.3969 77.7639 40.4217 77.8377 40.4465L77.85 41.6744H77.7023C77.7023 41.3354 77.5874 41.0708 77.3576 40.8806C77.1279 40.6822 76.7709 40.5829 76.2867 40.5829C75.8764 40.5829 75.5235 40.6987 75.2281 40.9302C74.9409 41.1535 74.8014 41.4305 74.8096 41.7612C74.8096 41.8687 74.8219 41.9804 74.8465 42.0961C74.8793 42.2036 74.9286 42.3111 74.9942 42.4186C75.0681 42.5261 75.1665 42.6336 75.2896 42.7411L77.7762 44.676C77.9649 44.8331 78.1044 45.0357 78.1947 45.2837C78.285 45.5235 78.3342 45.7633 78.3424 46.0031C78.3506 46.3669 78.2562 46.7018 78.0593 47.0078C77.8623 47.3137 77.5956 47.5576 77.2592 47.7395C76.9309 47.9132 76.5657 48 76.1636 48C75.9256 48 75.6671 47.9793 75.3881 47.938C75.1173 47.8966 74.8629 47.8346 74.6249 47.7519C74.3869 47.661 74.19 47.5494 74.0341 47.4171C74.0094 47.3013 73.9971 47.1566 73.9971 46.9829C73.9971 46.801 74.0094 46.6109 74.0341 46.4124C74.0669 46.214 74.1079 46.0362 74.1572 45.8791H74.3049C74.272 46.2512 74.3254 46.5695 74.4649 46.8341C74.6044 47.0987 74.8096 47.3013 75.0804 47.4419C75.3512 47.5742 75.6671 47.6362 76.0282 47.6279C76.537 47.6114 76.935 47.4832 77.2222 47.2434C77.5177 46.9953 77.6654 46.6687 77.6654 46.2636C77.6654 46.0651 77.6284 45.8873 77.5546 45.7302C77.4889 45.5649 77.3782 45.4119 77.2222 45.2713L74.7603 43.3612C74.5305 43.1628 74.3746 42.9437 74.2926 42.7039C74.2105 42.4641 74.1695 42.2367 74.1695 42.0217C74.1695 41.6827 74.2597 41.3767 74.4403 41.1039C74.6208 40.831 74.8629 40.616 75.1665 40.4589C75.4784 40.2935 75.8231 40.2108 76.2005 40.2108ZM77.8254 40.3225L77.8377 40.5457H76.9637V40.3225H77.8254Z" fill="black"/>
</svg>
