<svg width="31" height="31" viewBox="0 0 31 31" fill="none" xmlns="http://www.w3.org/2000/svg">
<g clip-path="url(#clip0_108_180)">
<path d="M21.4309 9.72626C21.4367 9.72626 21.4445 9.72626 21.4522 9.72626C21.6547 9.72626 21.8426 9.78923 21.9967 9.89773L21.9938 9.89579C22.1061 9.99364 22.1817 10.1312 22.2001 10.2862V10.2891C22.2195 10.4073 22.2301 10.5429 22.2301 10.6814C22.2301 10.7444 22.2282 10.8064 22.2234 10.8684V10.8597C22.0054 13.1547 21.0599 18.7201 20.5794 21.2893C20.376 22.3772 19.9759 22.7414 19.5884 22.7763C18.7465 22.8548 18.1071 22.2202 17.2915 21.6855C16.0146 20.8475 15.2929 20.3263 14.0539 19.5097C12.6211 18.5671 13.5501 18.0469 14.3658 17.2002C14.5799 16.9774 18.2912 13.6013 18.3639 13.2951C18.3677 13.2767 18.3697 13.2564 18.3697 13.2351C18.3697 13.1595 18.3416 13.0907 18.296 13.0384C18.2457 13.0055 18.1827 12.9871 18.1168 12.9871C18.0732 12.9871 18.0316 12.9958 17.9928 13.0103L17.9948 13.0094C17.8669 13.0384 15.8273 14.3863 11.8761 17.0529C11.445 17.393 10.9006 17.608 10.3077 17.6332H10.3019C9.46202 17.5315 8.69961 17.3445 7.97595 17.0781L8.04764 17.1014C7.13895 16.8049 6.41723 16.6489 6.47923 16.1471C6.51217 15.8862 6.8719 15.6192 7.55842 15.346C11.7873 13.5034 14.6074 12.2889 16.0185 11.7025C17.5753 10.8762 19.3801 10.1961 21.2779 9.75532L21.43 9.72529L21.4309 9.72626ZM15.4324 0.992981C7.38986 1.01236 0.876953 7.53689 0.876953 15.5824C0.876953 23.6395 7.40827 30.1717 15.4663 30.1717C23.5244 30.1717 30.0557 23.6404 30.0557 15.5824C30.0557 7.53689 23.5428 1.01236 15.5022 0.992981H15.5002C15.4776 0.992981 15.455 0.992981 15.4324 0.992981Z" fill="#434343"/>
</g>
<defs>
<clipPath id="clip0_108_180">
<rect width="31" height="31" fill="white"/>
</clipPath>
</defs>
</svg>
