<svg width="30" height="30" viewBox="0 0 30 30" fill="none" xmlns="http://www.w3.org/2000/svg">
<circle cx="15" cy="15" r="15" fill="#434343"/>
<path d="M18.9153 9.63689C18.396 9.04156 18.0839 8.26531 18.0839 7.41669H17.4331C17.6007 8.34425 18.1528 9.14025 18.9153 9.63689Z" fill="white"/>
<path d="M12.8948 14.4326C11.7675 14.4326 10.8506 15.3503 10.8506 16.4784C10.8506 17.2646 11.2975 17.9487 11.9483 18.2908C11.7051 17.9553 11.5605 17.5442 11.5605 17.0968C11.5605 15.9687 12.4774 15.0509 13.6046 15.0509C13.815 15.0509 14.0187 15.0871 14.2094 15.1463V12.6597C14.0121 12.6333 13.8117 12.6169 13.6046 12.6169C13.5685 12.6169 13.5356 12.6202 13.4995 12.6202V14.5279C13.3056 14.4687 13.1051 14.4326 12.8948 14.4326Z" fill="white"/>
<path d="M20.7588 10.7289V12.6202C19.4969 12.6202 18.3269 12.2156 17.3738 11.5314V16.4817C17.3738 18.9519 15.3658 20.9649 12.8944 20.9649C11.9413 20.9649 11.0539 20.6623 10.3276 20.1525C11.146 21.0307 12.3126 21.5833 13.6042 21.5833C16.0723 21.5833 18.0837 19.5736 18.0837 17.1001V12.1498C19.0367 12.834 20.2067 13.2385 21.4687 13.2385V10.8046C21.2222 10.8046 20.9856 10.7782 20.7588 10.7289Z" fill="white"/>
<path d="M17.374 16.4817V11.5315C18.3271 12.2157 19.4971 12.6202 20.759 12.6202V10.7289C20.0294 10.5744 19.3887 10.1796 18.9154 9.63689C18.153 9.14025 17.604 8.34425 17.4299 7.41669H15.6486L15.6453 17.1757C15.6059 18.2678 14.7054 19.146 13.6044 19.146C12.9208 19.146 12.3194 18.8073 11.9448 18.2941C11.2941 17.9488 10.8471 17.2679 10.8471 16.4817C10.8471 15.3536 11.764 14.4358 12.8913 14.4358C13.1016 14.4358 13.3054 14.472 13.496 14.5313V12.6235C11.0772 12.6761 9.125 14.6628 9.125 17.1001C9.125 18.2776 9.58182 19.35 10.3278 20.1525C11.0541 20.6624 11.9415 20.965 12.8946 20.965C15.3627 20.965 17.374 18.952 17.374 16.4817Z" fill="white"/>
</svg>
