<svg width="21" height="21" viewBox="0 0 21 21" fill="none" xmlns="http://www.w3.org/2000/svg">
<path d="M10.5002 7.33334V3.11111M10.5002 7.33334C9.87391 7.33334 9.26167 7.51906 8.74091 7.86702C8.22016 8.21497 7.81428 8.70954 7.5746 9.28817C7.33492 9.8668 7.27221 10.5035 7.3944 11.1178C7.51658 11.7321 7.81818 12.2963 8.26104 12.7392C8.70391 13.182 9.26816 13.4836 9.88243 13.6058C10.4967 13.728 11.1334 13.6653 11.712 13.4256C12.2907 13.1859 12.7852 12.7801 13.1332 12.2593C13.4812 11.7386 13.6669 11.1263 13.6669 10.5M10.5002 7.33334C11.3401 7.33334 12.1455 7.66697 12.7394 8.26083C13.3333 8.8547 13.6669 9.66015 13.6669 10.5M8.26244 8.26223L5.27522 5.275M7.38633 10.5528H3.11133M8.26244 12.7906L5.27522 15.7778M10.5002 17.8889V13.6667M15.778 15.7778L12.7908 12.7906M17.8891 10.5H13.6669M15.778 5.275L12.738 8.26223" stroke="black" stroke-width="1.5" stroke-linecap="round" stroke-linejoin="round"/>
<path d="M12.6109 1L10.4998 3.11111L8.38867 1" stroke="black" stroke-width="1.5" stroke-linecap="round" stroke-linejoin="round"/>
<path d="M2.28809 5.275H5.27531V2.28778" stroke="black" stroke-width="1.5" stroke-linecap="round" stroke-linejoin="round"/>
<path d="M1 12.6111L3.11111 10.5L1 8.38889" stroke="black" stroke-width="1.5" stroke-linecap="round" stroke-linejoin="round"/>
<path d="M5.27531 18.7122V15.725H2.28809" stroke="black" stroke-width="1.5" stroke-linecap="round" stroke-linejoin="round"/>
<path d="M12.6109 20L10.4998 17.8889L8.38867 20" stroke="black" stroke-width="1.5" stroke-linecap="round" stroke-linejoin="round"/>
<path d="M18.7123 15.725H15.7251V18.7122" stroke="black" stroke-width="1.5" stroke-linecap="round" stroke-linejoin="round"/>
<path d="M19.9998 8.38889L17.8887 10.5L19.9998 12.6111" stroke="black" stroke-width="1.5" stroke-linecap="round" stroke-linejoin="round"/>
<path d="M15.7251 2.28778V5.275H18.7123" stroke="black" stroke-width="1.5" stroke-linecap="round" stroke-linejoin="round"/>
</svg>
